<svg width="218" height="55" viewBox="0 0 218 55" fill="none" xmlns="http://www.w3.org/2000/svg">
<path d="M0.00999999 1.01C2.86333 0.963333 5.72333 0.92 8.59 0.88C8.58333 8.34667 8.58333 15.8367 8.59 23.35C12.23 15.7167 15.87 8.18 19.51 0.74C22.37 0.706667 25.2267 0.673333 28.08 0.64C24.68 7.02 21.2767 13.4733 17.87 20C21.3233 30.7867 24.7833 41.34 28.25 51.66C25.25 52.02 22.26 52.38 19.28 52.74C16.8533 45.3667 14.4333 37.86 12.02 30.22C10.88 32.5533 9.73667 34.89 8.59 37.23C8.59 42.8633 8.58667 48.46 8.58 54.02C5.72 54.3533 2.86 54.68 0 55C0.00666667 37.0333 0.00999999 19.0367 0.00999999 1.01ZM34.64 0.56C37.5 0.526667 40.36 0.493333 43.22 0.46C43.2267 17.1133 43.2267 33.58 43.22 49.86C40.3667 50.2067 37.5067 50.55 34.64 50.89C34.6467 34.27 34.6467 17.4933 34.64 0.56ZM58.7 7.28C55.7133 7.34 52.72 7.40333 49.72 7.47C49.7267 5.10333 49.7267 2.74333 49.72 0.39C58.5667 0.296667 67.41 0.21 76.25 0.13C76.25 2.41 76.2467 4.68667 76.24 6.96C73.26 7.00667 70.27 7.05667 67.27 7.11C67.27 20.67 67.27 33.97 67.27 47.01C64.4167 47.3433 61.5567 47.68 58.69 48.02C58.6967 34.6533 58.7 21.0733 58.7 7.28ZM90.22 6.78C87.22 6.81333 84.2267 6.85 81.24 6.89C81.24 4.63 81.2433 2.36667 81.25 0.1C90.09 0.0533334 98.9267 0.02 107.76 0C107.767 2.23333 107.77 4.46333 107.77 6.69C104.777 6.69667 101.783 6.70667 98.79 6.72C98.79 19.6067 98.7933 31.9 98.8 43.6C95.94 43.8667 93.08 44.1433 90.22 44.43C90.22 32.3433 90.22 19.7933 90.22 6.78ZM114.26 0C121.827 0.0266667 129.39 0.06 136.95 0.1C136.95 2.36667 136.95 4.63 136.95 6.89C132.25 6.83667 127.547 6.78667 122.84 6.74C122.84 11.04 122.837 15.3 122.83 19.52C126.53 19.6 130.227 19.6933 133.92 19.8C133.92 21.96 133.917 24.11 133.91 26.25C130.223 26.0967 126.53 25.96 122.83 25.84C122.83 32.02 122.833 38.0633 122.84 43.97C119.973 43.71 117.11 43.48 114.25 43.28C114.257 29.6667 114.26 15.24 114.26 0ZM143.41 0.15C146.27 0.176667 149.127 0.2 151.98 0.22C151.98 13.9467 151.98 27.4467 151.98 40.72C156.687 41.1867 161.393 41.6567 166.1 42.13C166.1 44.3833 166.103 46.63 166.11 48.87C158.543 47.9767 150.977 47.09 143.41 46.21C143.41 31.2433 143.41 15.89 143.41 0.15ZM172.57 0.44C175.43 0.473333 178.29 0.506667 181.15 0.54C181.15 17.4133 181.15 34.1233 181.15 50.67C178.283 50.3233 175.423 49.98 172.57 49.64C172.563 33.4333 172.563 17.0333 172.57 0.44ZM197.48 26.25C194.333 17.6167 191.187 9.07333 188.04 0.62C191.053 0.653333 194.07 0.69 197.09 0.73C199.017 6.37667 200.94 12.0667 202.86 17.8C202.913 17.8 202.963 17.8033 203.01 17.81C204.99 12.1767 206.97 6.53333 208.95 0.88C211.65 0.913333 214.353 0.953333 217.06 1C213.913 9.66 210.767 18.2767 207.62 26.85C210.92 36.19 214.223 45.57 217.53 54.99C214.503 54.65 211.487 54.3067 208.48 53.96C206.4 47.6733 204.32 41.39 202.24 35.11C202.187 35.1033 202.13 35.1 202.07 35.1C199.943 40.9667 197.813 46.74 195.68 52.42C192.98 52.0933 190.277 51.7667 187.57 51.44C190.877 43.22 194.18 34.8233 197.48 26.25Z" fill="#DB202C"/>
</svg>
